<?xml version="1.0" encoding="UTF-8"?>
<!DOCTYPE svg PUBLIC "-//W3C//DTD SVG 1.1//EN" "http://www.w3.org/Graphics/SVG/1.1/DTD/svg11.dtd">
<svg xmlns="http://www.w3.org/2000/svg" version="1.1" width="1101px" height="172px" style="shape-rendering:geometricPrecision; text-rendering:geometricPrecision; image-rendering:optimizeQuality; fill-rule:evenodd; clip-rule:evenodd" xmlns:xlink="http://www.w3.org/1999/xlink">
<g><path style="opacity:0.812" fill="#fefffe" d="M 49.5,43.5 C 71.503,47.4755 93.503,47.4755 115.5,43.5C 115.667,63.8361 115.5,84.1694 115,104.5C 112.736,107.433 109.902,109.6 106.5,111C 98.7086,113.98 90.8753,116.814 83,119.5C 75.0274,117.065 67.1941,114.231 59.5,111C 56.0731,109.569 53.2398,107.402 51,104.5C 49.5353,84.2339 49.0353,63.9006 49.5,43.5 Z M 106.5,105.5 C 110.44,101.192 111.44,96.1924 109.5,90.5C 91.8333,94.5 74.1667,94.5 56.5,90.5C 55.3414,94.122 55.1747,97.7887 56,101.5C 58.1141,104.121 60.6141,106.121 63.5,107.5C 59.0885,106.93 55.9218,104.597 54,100.5C 53.3333,82.8333 53.3333,65.1667 54,47.5C 73.3291,52.8324 92.6625,52.8324 112,47.5C 112.667,64.8333 112.667,82.1667 112,99.5C 111.351,102.647 109.518,104.647 106.5,105.5 Z M 66.5,60.5 C 65.5041,60.4142 64.6708,60.7476 64,61.5C 62.3476,57.0446 63.8476,55.8779 68.5,58C 67.6195,58.7083 66.9528,59.5416 66.5,60.5 Z M 99.5,56.5 C 103.69,56.6459 104.524,58.3126 102,61.5C 101,60.1667 100,60.1667 99,61.5C 98.6905,60.2341 98.1905,59.0674 97.5,58C 98.4158,57.7216 99.0825,57.2216 99.5,56.5 Z M 81.5,62.5 C 81.5858,61.5041 81.2524,60.6708 80.5,60C 81.6667,59.5 82.5,58.6667 83,57.5C 86.1249,59.9555 85.6249,61.6222 81.5,62.5 Z M 106.5,105.5 C 105.713,107.104 104.38,107.771 102.5,107.5C 103.514,106.326 104.847,105.66 106.5,105.5 Z M 63.5,107.5 C 65.5529,107.402 67.2196,108.069 68.5,109.5C 66.4471,109.598 64.7804,108.931 63.5,107.5 Z M 102.5,107.5 C 96.3016,110.629 89.8016,113.296 83,115.5C 80.5182,114.961 78.3516,113.961 76.5,112.5C 78.8268,112.665 80.9935,113.331 83,114.5C 89.3284,111.668 95.8284,109.335 102.5,107.5 Z M 68.5,109.5 C 71.5418,109.733 74.2084,110.733 76.5,112.5C 73.4582,112.267 70.7916,111.267 68.5,109.5 Z"/></g>
<g><path style="opacity:0.848" fill="#fefffe" d="M 126.5,47.5 C 132.537,47.1707 138.537,47.5041 144.5,48.5C 142.625,49.5403 141.292,51.0403 140.5,53C 145.541,67.9571 150.874,82.7904 156.5,97.5C 159.19,92.2639 161.19,86.7639 162.5,81C 159.535,71.7718 156.368,62.6052 153,53.5C 151.22,51.7071 149.387,50.0404 147.5,48.5C 153.5,47.1667 159.5,47.1667 165.5,48.5C 163.257,49.4118 162.257,51.0785 162.5,53.5C 163.65,58.4543 165.484,63.121 168,67.5C 170.877,62.0691 171.71,56.4024 170.5,50.5C 169.5,50 168.5,49.5 167.5,49C 169.97,47.886 172.636,47.386 175.5,47.5C 177.833,47.8333 180.167,48.1667 182.5,48.5C 181.345,49.9505 179.845,50.9505 178,51.5C 174.569,58.7946 171.736,66.2946 169.5,74C 172.596,81.787 175.596,89.6204 178.5,97.5C 184.245,83.1716 189.579,68.6716 194.5,54C 193.729,51.7334 192.396,49.9 190.5,48.5C 195.167,47.1667 199.833,47.1667 204.5,48.5C 200.796,50.8999 198.296,54.2332 197,58.5C 190.692,77.092 184.192,95.592 177.5,114C 176.551,114.617 175.718,114.451 175,113.5C 171.863,104.423 168.53,95.4229 165,86.5C 162,94.8333 159,103.167 156,111.5C 155.632,112.91 154.799,113.91 153.5,114.5C 145.904,94.2147 138.404,73.8814 131,53.5C 129.442,51.6411 127.609,50.1411 125.5,49C 126.056,48.6174 126.389,48.1174 126.5,47.5 Z"/></g>
<g><path style="opacity:0.857" fill="#fefffe" d="M 421.5,77.5 C 426.561,89.1852 425.228,100.019 417.5,110C 409.284,115.027 401.45,114.527 394,108.5C 390.255,113.155 385.422,114.655 379.5,113C 378.333,111.833 377.167,110.667 376,109.5C 374.571,98.9115 374.071,88.2449 374.5,77.5C 372.396,77.2011 370.396,77.5344 368.5,78.5C 371.124,87.4811 368.124,93.6478 359.5,97C 355.5,97.3333 351.5,97.6667 347.5,98C 345.193,99.8276 345.526,101.494 348.5,103C 354.874,103.311 361.207,103.977 367.5,105C 373.234,108.18 375.067,113.013 373,119.5C 370.362,123.128 366.862,125.628 362.5,127C 356.083,127.87 349.749,127.536 343.5,126C 338.077,123.323 336.41,119.156 338.5,113.5C 334.26,112.787 330.093,112.454 326,112.5C 326.193,110.813 327.193,109.479 329,108.5C 329.667,100.5 329.667,92.5 329,84.5C 324.899,73.8874 319.232,72.8874 312,81.5C 311.333,90.1667 311.333,98.8333 312,107.5C 313.552,108.966 315.386,109.966 317.5,110.5C 318.711,111.274 318.711,112.107 317.5,113C 302.109,112.589 286.776,112.589 271.5,113C 270.689,110.709 271.523,108.875 274,107.5C 274.667,100.833 274.667,94.1667 274,87.5C 272.111,75.0426 266.445,72.7092 257,80.5C 255,89.5 255,98.5 257,107.5C 258.932,109.038 261.099,110.205 263.5,111C 262.91,112.299 261.91,113.132 260.5,113.5C 255.813,112.224 251.146,112.224 246.5,113.5C 245.5,113.167 244.833,112.5 244.5,111.5C 246.342,110.158 247.842,108.491 249,106.5C 249.667,90.8333 249.667,75.1667 249,59.5C 248.691,58.2341 248.191,57.0674 247.5,56C 245.616,55.7837 243.949,55.117 242.5,54C 246.897,51.8013 251.231,49.6346 255.5,47.5C 255.334,56.8393 255.5,66.1726 256,75.5C 262.592,69.3026 269.425,68.9692 276.5,74.5C 278.194,76.5543 279.361,78.8877 280,81.5C 280.333,89.5 280.667,97.5 281,105.5C 281.329,109.04 283.162,110.206 286.5,109C 287.126,108.25 287.626,107.416 288,106.5C 288.667,97.5 288.667,88.5 288,79.5C 286.796,78.1414 285.296,77.1414 283.5,76.5C 286.796,74.1792 290.129,71.8458 293.5,69.5C 294.192,70.0253 294.692,70.6919 295,71.5C 295.333,83.8333 295.667,96.1667 296,108.5C 298.916,110.013 301.582,109.68 304,107.5C 304.667,97.8333 304.667,88.1667 304,78.5C 302.644,77.6198 301.144,77.2865 299.5,77.5C 299.5,76.5 299.5,75.5 299.5,74.5C 303.358,73.9044 306.691,72.2378 309.5,69.5C 311.131,71.0588 311.964,73.0588 312,75.5C 317.028,70.4212 322.861,69.2546 329.5,72C 332.106,73.9384 333.939,76.4384 335,79.5C 336.22,88.7736 336.887,98.107 337,107.5C 338.555,109.515 340.389,109.848 342.5,108.5C 339.714,103.981 340.047,99.6479 343.5,95.5C 337.659,87.0841 338.325,79.2508 345.5,72C 353.048,68.5239 360.381,69.0239 367.5,73.5C 373.593,71.0748 377.593,66.7415 379.5,60.5C 380.086,60.7093 380.586,61.0426 381,61.5C 381.498,64.8168 381.665,68.1501 381.5,71.5C 385.39,71.7275 389.224,71.3942 393,70.5C 393.5,70.8333 394,71.1667 394.5,71.5C 391.633,77.2782 392.3,77.7782 396.5,73C 406.167,67.672 414.501,69.172 421.5,77.5 Z M 351.5,72.5 C 356.919,71.9593 360.419,74.2926 362,79.5C 362.667,82.8333 362.667,86.1667 362,89.5C 358.987,94.5352 354.82,95.7019 349.5,93C 346.778,88.5202 345.945,83.6869 347,78.5C 347.599,75.7458 349.099,73.7458 351.5,72.5 Z M 403.5,73.5 C 410.942,74.1053 415.442,78.1053 417,85.5C 417.667,90.8333 417.667,96.1667 417,101.5C 413.754,109.852 408.254,111.686 400.5,107C 394.02,97.6279 393.187,87.7946 398,77.5C 399.5,75.5313 401.333,74.198 403.5,73.5 Z M 381.5,77.5 C 385.182,77.3347 388.848,77.5014 392.5,78C 390.765,80.1922 389.598,82.6922 389,85.5C 387.784,92.7906 388.617,99.7906 391.5,106.5C 387.96,109.356 384.794,109.023 382,105.5C 381.5,96.1726 381.334,86.8393 381.5,77.5 Z M 346.5,110.5 C 352.262,110.149 357.928,110.649 363.5,112C 366.379,113.666 367.212,116.166 366,119.5C 361.3,124.373 355.8,125.54 349.5,123C 344.242,119.878 343.242,115.712 346.5,110.5 Z"/></g>
<g><path style="opacity:0.863" fill="#fefffe" d="M 903.5,47.5 C 910.532,47.1697 917.532,47.503 924.5,48.5C 922.288,49.7401 920.455,51.4068 919,53.5C 918.333,71.1667 918.333,88.8333 919,106.5C 919.5,107 920,107.5 920.5,108C 926.934,109.208 932.934,108.208 938.5,105C 933.664,93.8585 934.997,83.5252 942.5,74C 953.466,66.8784 962.633,68.7117 970,79.5C 974.352,91.4095 972.185,101.91 963.5,111C 955.979,114.696 948.812,114.196 942,109.5C 941.5,111.333 940.333,112.5 938.5,113C 927.124,112.979 915.791,112.979 904.5,113C 903.167,112.333 903.167,111.667 904.5,111C 906.519,110.55 908.352,109.717 910,108.5C 910.667,89.8333 910.667,71.1667 910,52.5C 908.352,51.283 906.519,50.4497 904.5,50C 903.748,49.3292 903.414,48.4959 903.5,47.5 Z M 950.5,73.5 C 957.597,73.3008 962.097,76.6342 964,83.5C 966.437,91.4623 965.77,99.129 962,106.5C 956.093,110.895 950.76,110.228 946,104.5C 941.421,95.113 941.421,85.7797 946,76.5C 947.652,75.6006 949.152,74.6006 950.5,73.5 Z"/></g>
<g><path style="opacity:0.885" fill="#fefffe" d="M 468.5,48.5 C 474.868,48.1703 481.202,48.5037 487.5,49.5C 486.653,50.8448 485.487,51.8448 484,52.5C 482.07,68.1357 482.07,83.8023 484,99.5C 485.94,106.27 490.44,109.937 497.5,110.5C 506.784,109.716 511.95,104.716 513,95.5C 513.667,82.1667 513.667,68.8333 513,55.5C 511.701,52.626 509.535,50.7927 506.5,50C 509.309,48.8782 512.309,48.3782 515.5,48.5C 518.167,48.8333 520.833,49.1667 523.5,49.5C 522.52,50.9814 521.353,52.3147 520,53.5C 519.667,67.5 519.333,81.5 519,95.5C 516.795,108.367 509.129,114.7 496,114.5C 486.314,115.294 479.647,111.294 476,102.5C 474.712,86.5668 474.045,70.5668 474,54.5C 472.826,52.3291 470.993,51.3291 468.5,51.5C 468.5,50.5 468.5,49.5 468.5,48.5 Z"/></g>
<g><path style="opacity:0.863" fill="#fefffe" d="M 841.5,48.5 C 846.179,48.3342 850.845,48.5008 855.5,49C 858.033,51.1518 860.7,51.6518 863.5,50.5C 864.177,55.8742 864.177,61.2075 863.5,66.5C 862.522,66.0233 861.689,65.3567 861,64.5C 858.341,54.5915 852.175,51.0915 842.5,54C 836.88,58.0769 836.213,62.7436 840.5,68C 846.236,72.0635 852.236,75.7302 858.5,79C 866.895,86.3666 868.729,95.2 864,105.5C 859.27,113.193 852.437,116.026 843.5,114C 839.595,112.641 835.595,111.808 831.5,111.5C 831.5,104.833 831.5,98.1667 831.5,91.5C 832.675,91.281 833.675,91.6143 834.5,92.5C 835.701,96.9348 837.201,101.268 839,105.5C 846.777,112.8 853.111,111.8 858,102.5C 859.056,98.3763 858.222,94.7096 855.5,91.5C 847.361,86.3411 839.861,80.3411 833,73.5C 828.733,62.4799 831.566,54.1466 841.5,48.5 Z"/></g>
<g><path style="opacity:0.872" fill="#fefffe" d="M 55.5,49.5 C 64.5171,51.5734 73.6838,52.9067 83,53.5C 92.1362,52.8141 101.136,51.4807 110,49.5C 110.828,54.202 110.662,58.8687 109.5,63.5C 92.2209,67.3039 74.8876,67.4706 57.5,64C 55.593,59.4816 54.9264,54.6483 55.5,49.5 Z M 66.5,60.5 C 66.9528,59.5416 67.6195,58.7083 68.5,58C 63.8476,55.8779 62.3476,57.0446 64,61.5C 64.6708,60.7476 65.5041,60.4142 66.5,60.5 Z M 99.5,56.5 C 99.0825,57.2216 98.4158,57.7216 97.5,58C 98.1905,59.0674 98.6905,60.2341 99,61.5C 100,60.1667 101,60.1667 102,61.5C 104.524,58.3126 103.69,56.6459 99.5,56.5 Z M 81.5,62.5 C 85.6249,61.6222 86.1249,59.9555 83,57.5C 82.5,58.6667 81.6667,59.5 80.5,60C 81.2524,60.6708 81.5858,61.5041 81.5,62.5 Z"/></g>
<g><path style="opacity:0.749" fill="#fefffe" d="M 290.5,56.5 C 293.555,57.2465 295.222,59.2465 295.5,62.5C 292.587,69.2293 289.921,69.0627 287.5,62C 288.632,60.2355 289.632,58.4021 290.5,56.5 Z"/></g>
<g><path style="opacity:0.809" fill="#fefffe" d="M 568.5,56.5 C 572.169,58.438 573.336,61.438 572,65.5C 568.256,68.5203 566.089,67.5203 565.5,62.5C 565.984,60.1992 566.984,58.1992 568.5,56.5 Z"/></g>
<g><path style="opacity:0.774" fill="#fefffe" d="M 696.5,56.5 C 701.496,60.0862 701.662,63.7529 697,67.5C 691.298,64.1859 691.131,60.5193 696.5,56.5 Z"/></g>
<g><path style="opacity:0.75" fill="#fefffe" d="M 773.5,56.5 C 776.555,57.2465 778.222,59.2465 778.5,62.5C 775.587,69.2293 772.921,69.0627 770.5,62C 771.632,60.2355 772.632,58.4021 773.5,56.5 Z"/></g>
<g><path style="opacity:0.81" fill="#fefffe" d="M 1015.5,56.5 C 1019.17,58.438 1020.34,61.438 1019,65.5C 1015.26,68.5203 1013.09,67.5203 1012.5,62.5C 1012.98,60.1992 1013.98,58.1992 1015.5,56.5 Z"/></g>
<g><path style="opacity:0.848" fill="#fefffe" d="M 714.5,60.5 C 715.75,60.5774 716.583,61.244 717,62.5C 717.497,65.146 717.664,67.8127 717.5,70.5C 724.863,70.1694 732.197,70.5027 739.5,71.5C 738.345,72.9505 736.845,73.9505 735,74.5C 736.62,83.7047 739.287,92.7047 743,101.5C 746.039,93.8433 748.539,86.01 750.5,78C 749.008,75.3424 747.008,73.1757 744.5,71.5C 749.5,70.1667 754.5,70.1667 759.5,71.5C 757.658,72.8424 756.158,74.5091 755,76.5C 749.868,92.8956 744.535,109.229 739,125.5C 736.821,127.637 734.321,127.971 731.5,126.5C 734.103,121.75 736.436,116.917 738.5,112C 734.927,100.021 730.927,88.1879 726.5,76.5C 723.572,75.5159 720.572,75.1826 717.5,75.5C 717.334,85.8387 717.5,96.172 718,106.5C 721.546,108.981 725.213,108.981 729,106.5C 729.5,106.833 730,107.167 730.5,107.5C 726.077,113.435 720.41,114.935 713.5,112C 712.54,110.581 711.707,109.081 711,107.5C 710.5,96.8385 710.333,86.1719 710.5,75.5C 707.813,75.6641 705.146,75.4974 702.5,75C 705.333,72.8333 708.167,70.6667 711,68.5C 712.456,65.9244 713.623,63.2577 714.5,60.5 Z"/></g>
<g><path style="opacity:0.854" fill="#fefffe" d="M 876.5,60.5 C 877.75,60.5774 878.583,61.244 879,62.5C 879.497,65.146 879.664,67.8127 879.5,70.5C 884.066,70.6787 888.4,70.1787 892.5,69C 891.692,71.0876 890.692,73.0876 889.5,75C 886.183,75.4983 882.85,75.665 879.5,75.5C 879.334,85.8387 879.5,96.172 880,106.5C 882.153,108.444 884.653,108.944 887.5,108C 891.166,107.171 894.166,105.338 896.5,102.5C 901.48,106.044 901.647,109.711 897,113.5C 894.679,112.513 893.013,110.846 892,108.5C 886.515,114.186 880.515,114.853 874,110.5C 872.564,98.9097 872.064,87.243 872.5,75.5C 869.813,75.6641 867.146,75.4974 864.5,75C 867.333,72.8333 870.167,70.6667 873,68.5C 874.456,65.9244 875.623,63.2577 876.5,60.5 Z"/></g>
<g><path style="opacity:0.847" fill="#fefffe" d="M 81.5,86.5 C 78.3752,85.5206 75.0419,85.1872 71.5,85.5C 71.5,79.8333 71.5,74.1667 71.5,68.5C 79.1667,69.8333 86.8333,69.8333 94.5,68.5C 94.5,74.1667 94.5,79.8333 94.5,85.5C 91.1501,85.335 87.8168,85.5017 84.5,86C 88.1516,86.4986 91.8183,86.6653 95.5,86.5C 95.1718,81.1254 95.5052,75.7921 96.5,70.5C 96.8333,70.6667 97.1667,70.8333 97.5,71C 98.4764,77.0758 98.8097,83.2424 98.5,89.5C 93.086,88.9758 87.9193,89.6425 83,91.5C 78.0807,89.6425 72.914,88.9758 67.5,89.5C 67.3338,83.4908 67.5005,77.4908 68,71.5C 68.414,71.0426 68.914,70.7093 69.5,70.5C 70.4948,75.7921 70.8282,81.1254 70.5,86.5C 74.1667,86.5 77.8333,86.5 81.5,86.5 Z"/></g>
<g><path style="opacity:0.813" fill="#fefffe" d="M 202.5,69.5 C 208.232,69.0383 212.732,71.0383 216,75.5C 217.75,85.1523 217.916,94.819 216.5,104.5C 217.052,106.333 217.885,108 219,109.5C 220,105.5 221,101.5 222,97.5C 223.52,100.382 224.853,103.382 226,106.5C 232.397,112.36 237.23,111.193 240.5,103C 239.87,101.108 238.87,99.4413 237.5,98C 232.396,95.2266 227.563,92.0599 223,88.5C 218.023,79.6571 220.189,73.4904 229.5,70C 233.211,69.5611 236.878,69.8944 240.5,71C 241.667,71.5 242.5,72.3333 243,73.5C 243.497,76.146 243.664,78.8127 243.5,81.5C 242.5,81.5 241.5,81.5 240.5,81.5C 239.318,74.7332 235.318,72.2332 228.5,74C 224.5,77 224.5,80 228.5,83C 232.5,85.3333 236.5,87.6667 240.5,90C 246.142,95.4322 246.976,101.599 243,108.5C 237.323,113.99 230.823,114.99 223.5,111.5C 218.32,114.492 214.153,113.492 211,108.5C 205.585,113.511 199.418,114.677 192.5,112C 187.873,106.928 187.373,101.428 191,95.5C 196.756,91.0391 203.256,88.3725 210.5,87.5C 210.737,83.7267 210.237,80.0601 209,76.5C 205.043,72.4701 201.377,72.8035 198,77.5C 197.669,81.8921 195.503,84.8921 191.5,86.5C 190.081,82.5963 190.581,78.9296 193,75.5C 195.843,72.8373 199.009,70.8373 202.5,69.5 Z M 208.5,91.5 C 209.805,93.3972 210.471,95.7305 210.5,98.5C 211,107.508 207,110.674 198.5,108C 196.077,104.621 195.91,101.121 198,97.5C 201.069,94.5545 204.569,92.5545 208.5,91.5 Z"/></g>
<g><path style="opacity:0.853" fill="#fefffe" d="M 421.5,77.5 C 421.414,76.5041 421.748,75.6708 422.5,75C 426.194,73.8018 429.528,71.9685 432.5,69.5C 434.131,71.0588 434.964,73.0588 435,75.5C 439.998,70.3933 445.832,69.2266 452.5,72C 455.106,73.9384 456.939,76.4384 458,79.5C 459.193,89.117 459.859,98.7836 460,108.5C 461.816,109.329 463.649,110.163 465.5,111C 464.667,111.833 463.833,112.667 463,113.5C 458.3,112.714 453.634,112.381 449,112.5C 449.193,110.813 450.193,109.479 452,108.5C 452.667,100.5 452.667,92.5 452,84.5C 450.215,76.8608 445.715,74.3608 438.5,77C 436.951,78.214 435.785,79.714 435,81.5C 434.333,90.1667 434.333,98.8333 435,107.5C 436.552,108.966 438.386,109.966 440.5,110.5C 441.521,111.002 441.688,111.668 441,112.5C 435.231,112.378 429.397,112.545 423.5,113C 423.043,112.586 422.709,112.086 422.5,111.5C 424.323,110.509 425.823,109.176 427,107.5C 427.667,97.8333 427.667,88.1667 427,78.5C 425.301,77.5939 423.467,77.2606 421.5,77.5 Z"/></g>
<g><path style="opacity:0.854" fill="#fefffe" d="M 530.5,69.5 C 531.496,69.4142 532.329,69.7476 533,70.5C 533.333,72.1667 533.667,73.8333 534,75.5C 541.041,68.8419 548.041,68.8419 555,75.5C 556.562,77.9573 557.562,80.624 558,83.5C 558.182,92.0783 558.682,100.578 559.5,109C 561.749,109.863 563.582,109.363 565,107.5C 565.5,97.5056 565.666,87.5056 565.5,77.5C 564.022,77.762 562.689,77.4287 561.5,76.5C 564.311,74.5836 566.977,72.4169 569.5,70C 570.449,69.3828 571.282,69.5494 572,70.5C 572.333,82.8333 572.667,95.1667 573,107.5C 574.444,109.155 576.278,109.822 578.5,109.5C 578.778,111.346 578.111,112.68 576.5,113.5C 567.167,113.446 557.834,113.279 548.5,113C 548.043,112.586 547.709,112.086 547.5,111.5C 548.76,110.618 549.926,109.618 551,108.5C 551.667,100.5 551.667,92.5 551,84.5C 549.215,76.8608 544.715,74.3608 537.5,77C 535.951,78.214 534.785,79.714 534,81.5C 533.333,90.1667 533.333,98.8333 534,107.5C 535.552,108.966 537.386,109.966 539.5,110.5C 540.521,111.002 540.688,111.668 540,112.5C 534.231,112.378 528.397,112.545 522.5,113C 522.043,112.586 521.709,112.086 521.5,111.5C 523.323,110.509 524.823,109.176 526,107.5C 526.667,97.8333 526.667,88.1667 526,78.5C 524.175,77.8971 522.341,77.2304 520.5,76.5C 524.178,74.6608 527.511,72.3275 530.5,69.5 Z"/></g>
<g><path style="opacity:0.848" fill="#fefffe" d="M 621.5,69.5 C 631.915,70.9173 637.582,76.9173 638.5,87.5C 630.167,87.5 621.833,87.5 613.5,87.5C 613.363,94.9345 616.03,101.101 621.5,106C 627.612,108.577 632.945,107.41 637.5,102.5C 638.583,103.365 638.749,104.365 638,105.5C 632.603,113.271 625.437,115.438 616.5,112C 610.352,107.275 607.018,100.941 606.5,93C 606.496,84.6421 609.496,77.6421 615.5,72C 617.611,71.1553 619.611,70.322 621.5,69.5 Z M 619.5,73.5 C 626.464,73.2989 629.964,76.6322 630,83.5C 624.584,84.6389 619.084,84.8056 613.5,84C 614.342,79.8143 616.342,76.3143 619.5,73.5 Z"/></g>
<g><path style="opacity:0.843" fill="#fefffe" d="M 646.5,69.5 C 647.496,69.4142 648.329,69.7476 649,70.5C 649.111,75.3787 650.278,75.712 652.5,71.5C 659.506,69.3037 662.173,71.637 660.5,78.5C 658.041,79.643 655.707,79.3096 653.5,77.5C 652.186,78.3128 651.019,79.3128 650,80.5C 649.333,89.5 649.333,98.5 650,107.5C 652.268,108.76 654.434,110.094 656.5,111.5C 655.672,112.415 654.672,113.081 653.5,113.5C 648.969,112.189 644.469,112.189 640,113.5C 639.308,112.975 638.808,112.308 638.5,111.5C 639.48,110.019 640.647,108.685 642,107.5C 642.667,97.8333 642.667,88.1667 642,78.5C 640.4,77.1341 638.567,76.1341 636.5,75.5C 639.959,73.6834 643.292,71.6834 646.5,69.5 Z"/></g>
<g><path style="opacity:0.815" fill="#fefffe" d="M 671.5,69.5 C 675.611,69.5224 679.611,70.189 683.5,71.5C 684.259,74.1566 684.926,76.8233 685.5,79.5C 685.167,80.5 684.5,81.1667 683.5,81.5C 682.07,78.5673 680.07,76.0673 677.5,74C 675.167,73.3333 672.833,73.3333 670.5,74C 666.385,77.6005 666.719,80.9339 671.5,84C 676.267,86.438 680.767,89.2713 685,92.5C 689.225,101.448 687.059,108.281 678.5,113C 673.053,113.635 667.72,113.135 662.5,111.5C 662.063,106.639 662.563,101.972 664,97.5C 665.328,100.786 666.661,104.119 668,107.5C 673.121,111.875 677.455,111.209 681,105.5C 681.706,103.029 681.373,100.695 680,98.5C 675.916,95.8742 671.75,93.3742 667.5,91C 662.789,86.8604 661.289,81.6938 663,75.5C 665.21,72.4323 668.043,70.4323 671.5,69.5 Z"/></g>
<g><path style="opacity:0.849" fill="#fefffe" d="M 697.5,69.5 C 698.496,69.4142 699.329,69.7476 700,70.5C 700.167,83.1798 700.667,95.8465 701.5,108.5C 703.071,109.309 704.738,109.643 706.5,109.5C 706.853,111.635 706.02,112.968 704,113.5C 698.13,112.812 692.297,112.479 686.5,112.5C 686.5,111.5 686.5,110.5 686.5,109.5C 689.547,110.145 691.713,109.145 693,106.5C 693.667,97.1667 693.667,87.8333 693,78.5C 691.391,77.8534 689.891,77.02 688.5,76C 691.94,74.3864 694.94,72.2197 697.5,69.5 Z"/></g>
<g><path style="opacity:0.842" fill="#fefffe" d="M 775.5,69.5 C 776.496,69.4142 777.329,69.7476 778,70.5C 778.177,83.4086 778.677,96.242 779.5,109C 782.025,109.896 784.192,109.396 786,107.5C 786.667,98.1667 786.667,88.8333 786,79.5C 784.47,78.0798 782.637,77.0798 780.5,76.5C 783.961,73.9308 787.628,71.5974 791.5,69.5C 793.131,71.0588 793.964,73.0588 794,75.5C 801.041,68.8419 808.041,68.8419 815,75.5C 816.743,78.9567 817.743,82.6233 818,86.5C 818.333,93.8333 818.667,101.167 819,108.5C 820.816,109.329 822.649,110.163 824.5,111C 823.646,112.022 822.646,112.855 821.5,113.5C 816.938,112.71 812.438,112.376 808,112.5C 808.68,110.874 809.68,109.207 811,107.5C 811.667,100.167 811.667,92.8333 811,85.5C 807.844,74.8902 802.177,73.2235 794,80.5C 793.333,89.5 793.333,98.5 794,107.5C 795.552,108.966 797.386,109.966 799.5,110.5C 800.711,111.274 800.711,112.107 799.5,113C 787.808,113.657 776.142,113.491 764.5,112.5C 764.5,111.5 764.5,110.5 764.5,109.5C 767.547,110.145 769.713,109.145 771,106.5C 771.667,97.5 771.667,88.5 771,79.5C 769.796,78.1414 768.296,77.1414 766.5,76.5C 769.711,74.3996 772.711,72.0663 775.5,69.5 Z"/></g>
<g><path style="opacity:0.845" fill="#fefffe" d="M 977.5,69.5 C 978.5,69.5 979.5,69.5 980.5,69.5C 980.113,81.2206 980.613,92.8872 982,104.5C 987.048,110.866 991.381,110.199 995,102.5C 995.832,93.1489 995.665,83.8155 994.5,74.5C 993.069,74.0234 991.736,73.3567 990.5,72.5C 994.105,70.6724 997.771,70.0057 1001.5,70.5C 1002.48,82.783 1002.81,95.1164 1002.5,107.5C 1004.77,107.715 1006.94,108.382 1009,109.5C 1010.33,109.245 1011.33,108.578 1012,107.5C 1012.5,97.5056 1012.67,87.5056 1012.5,77.5C 1011.02,77.762 1009.69,77.4287 1008.5,76.5C 1011.31,74.5836 1013.98,72.4169 1016.5,70C 1017.45,69.3828 1018.28,69.5494 1019,70.5C 1019.33,82.8333 1019.67,95.1667 1020,107.5C 1021.44,109.155 1023.28,109.822 1025.5,109.5C 1025.78,111.346 1025.11,112.68 1023.5,113.5C 1019.01,112.195 1014.51,112.195 1010,113.5C 1006.09,110.299 1001.93,110.299 997.5,113.5C 996.201,112.91 995.368,111.91 995,110.5C 990.211,113.92 985.044,114.42 979.5,112C 977.106,110.048 975.606,107.548 975,104.5C 974.667,94.8333 974.333,85.1667 974,75.5C 972.89,73.9632 971.39,73.2965 969.5,73.5C 969.5,72.5 969.5,71.5 969.5,70.5C 972.385,70.8064 975.052,70.4731 977.5,69.5 Z"/></g>
<g><path style="opacity:0.817" fill="#fefffe" d="M 1034.5,69.5 C 1038.95,69.4219 1043.29,70.0886 1047.5,71.5C 1048.83,74.8333 1048.83,78.1667 1047.5,81.5C 1045.63,78.948 1043.63,76.448 1041.5,74C 1032.52,71.9603 1029.86,74.9603 1033.5,83C 1039.82,85.7374 1045.32,89.5707 1050,94.5C 1052.54,102.849 1050.04,109.016 1042.5,113C 1037.05,113.635 1031.72,113.135 1026.5,111.5C 1025.66,106.828 1026,102.161 1027.5,97.5C 1029.12,100.28 1030.28,103.28 1031,106.5C 1037.6,112.58 1042.43,111.414 1045.5,103C 1045.14,101.775 1044.64,100.609 1044,99.5C 1040.42,96.6267 1036.59,94.1267 1032.5,92C 1022.81,83.3367 1023.48,75.8367 1034.5,69.5 Z"/></g>
<g><path style="opacity:0.811" fill="#fefffe" d="M 574.5,70.5 C 579.875,70.1718 585.208,70.5052 590.5,71.5C 588.563,72.7443 586.896,74.2443 585.5,76C 588.333,84.5 591.167,93 594,101.5C 598.905,93.1214 601.572,84.1214 602,74.5C 600.513,73.8448 599.347,72.8448 598.5,71.5C 602.783,70.5078 607.116,70.1744 611.5,70.5C 610.313,72.9053 608.813,75.2387 607,77.5C 603.02,90.2933 598.186,102.627 592.5,114.5C 587.009,102.211 582.176,89.544 578,76.5C 576.579,74.5952 575.412,72.5952 574.5,70.5 Z"/></g>
<g><path style="opacity:0.932" fill="#fefffe" d="M 55.5,71.5 C 58.7278,72.5456 62.0611,73.2122 65.5,73.5C 65.5,77.1667 65.5,80.8333 65.5,84.5C 62.1194,84.5405 58.7861,84.2071 55.5,83.5C 55.5,79.5 55.5,75.5 55.5,71.5 Z"/></g>
<g><path style="opacity:0.908" fill="#fefffe" d="M 109.5,71.5 C 110.483,75.2984 110.817,79.2984 110.5,83.5C 107.193,84.0508 103.86,84.3841 100.5,84.5C 100.5,80.8333 100.5,77.1667 100.5,73.5C 103.689,73.1417 106.689,72.475 109.5,71.5 Z"/></g>
<g><path style="opacity:0.831" fill="#fefffe" d="M 106.5,105.5 C 104.847,105.66 103.514,106.326 102.5,107.5C 95.8284,109.335 89.3284,111.668 83,114.5C 80.9935,113.331 78.8268,112.665 76.5,112.5C 74.2084,110.733 71.5418,109.733 68.5,109.5C 67.2196,108.069 65.5529,107.402 63.5,107.5C 60.6141,106.121 58.1141,104.121 56,101.5C 55.1747,97.7887 55.3414,94.122 56.5,90.5C 74.1667,94.5 91.8333,94.5 109.5,90.5C 111.44,96.1924 110.44,101.192 106.5,105.5 Z"/></g>
</svg>
